<svg width="40" height="40" viewBox="0 0 40 40" fill="none" xmlns="http://www.w3.org/2000/svg">
<mask id="mask0_13_690" style="mask-type:alpha" maskUnits="userSpaceOnUse" x="0" y="0" width="40" height="40">
<rect width="40" height="40" fill="#D9D9D9"/>
</mask>
<g mask="url(#mask0_13_690)">
<path d="M12.4585 34.9999C9.93072 34.9999 7.77794 34.111 6.00016 32.3333C4.22238 30.5555 3.3335 28.4027 3.3335 25.8749C3.3335 23.486 4.13211 21.4235 5.72933 19.6874C7.32655 17.9513 9.31961 16.986 11.7085 16.7916L5.00016 3.33325H16.6668L20.0002 9.99992L23.3335 3.33325H35.0002L28.3335 16.7083C30.6946 16.9305 32.6738 17.9096 34.271 19.6458C35.8682 21.3819 36.6668 23.4444 36.6668 25.8333C36.6668 28.3888 35.7779 30.5555 34.0002 32.3333C32.2224 34.111 30.0557 34.9999 27.5002 34.9999C27.2502 34.9999 26.9932 34.993 26.7293 34.9791C26.4654 34.9652 26.2085 34.9305 25.9585 34.8749C27.4863 33.8749 28.6807 32.5763 29.5418 30.9791C30.4029 29.3819 30.8335 27.6666 30.8335 25.8333C30.8335 22.8055 29.7849 20.243 27.6877 18.1458C25.5904 16.0485 23.0279 14.9999 20.0002 14.9999C16.9724 14.9999 14.4099 16.0485 12.3127 18.1458C10.2154 20.243 9.16683 22.8055 9.16683 25.8333C9.16683 27.7221 9.55572 29.4999 10.3335 31.1666C11.1113 32.8333 12.3335 34.0694 14.0002 34.8749C13.7502 34.9305 13.4932 34.9652 13.2293 34.9791C12.9654 34.993 12.7085 34.9999 12.4585 34.9999ZM20.0002 33.3333C17.9168 33.3333 16.146 32.6041 14.6877 31.1458C13.2293 29.6874 12.5002 27.9166 12.5002 25.8333C12.5002 23.7499 13.2293 21.9791 14.6877 20.5208C16.146 19.0624 17.9168 18.3333 20.0002 18.3333C22.0835 18.3333 23.8543 19.0624 25.3127 20.5208C26.771 21.9791 27.5002 23.7499 27.5002 25.8333C27.5002 27.9166 26.771 29.6874 25.3127 31.1458C23.8543 32.6041 22.0835 33.3333 20.0002 33.3333ZM16.9168 30.4166L20.0002 28.0833L23.0835 30.4166L21.9168 26.6249L25.0002 24.4166H21.2085L20.0002 20.4166L18.7918 24.4166H15.0002L18.0835 26.6249L16.9168 30.4166Z" fill="#CD7F32"/>
</g>
</svg>
