<svg width="50" height="30" viewBox="0 0 50 30" fill="none" xmlns="http://www.w3.org/2000/svg">
<path d="M5 30C3.625 30 2.44792 29.5104 1.46875 28.5312C0.489583 27.5521 0 26.375 0 25V5C0 3.625 0.489583 2.44792 1.46875 1.46875C2.44792 0.489583 3.625 0 5 0H45C46.375 0 47.5521 0.489583 48.5312 1.46875C49.5104 2.44792 50 3.625 50 5V25C50 26.375 49.5104 27.5521 48.5312 28.5312C47.5521 29.5104 46.375 30 45 30H5ZM12.5 22.5H17.5V17.5H22.5V12.5H17.5V7.5H12.5V12.5H7.5V17.5H12.5V22.5ZM31.25 22.5C32.2917 22.5 33.1771 22.1354 33.9062 21.4062C34.6354 20.6771 35 19.7917 35 18.75C35 17.7083 34.6354 16.8229 33.9062 16.0938C33.1771 15.3646 32.2917 15 31.25 15C30.2083 15 29.3229 15.3646 28.5938 16.0938C27.8646 16.8229 27.5 17.7083 27.5 18.75C27.5 19.7917 27.8646 20.6771 28.5938 21.4062C29.3229 22.1354 30.2083 22.5 31.25 22.5ZM38.75 15C39.7917 15 40.6771 14.6354 41.4062 13.9062C42.1354 13.1771 42.5 12.2917 42.5 11.25C42.5 10.2083 42.1354 9.32292 41.4062 8.59375C40.6771 7.86458 39.7917 7.5 38.75 7.5C37.7083 7.5 36.8229 7.86458 36.0938 8.59375C35.3646 9.32292 35 10.2083 35 11.25C35 12.2917 35.3646 13.1771 36.0938 13.9062C36.8229 14.6354 37.7083 15 38.75 15Z" fill="white"/>
</svg>
