<svg width="50" height="50" viewBox="0 0 50 50" fill="none" xmlns="http://www.w3.org/2000/svg">
<mask id="mask0_10_295" style="mask-type:alpha" maskUnits="userSpaceOnUse" x="0" y="0" width="50" height="50">
<rect width="50" height="50" fill="#D9D9D9"/>
</mask>
<g mask="url(#mask0_10_295)">
<path d="M25.0003 43.75L21.9795 41.0417C18.4725 37.882 15.5732 35.1563 13.2816 32.8646C10.9899 30.573 9.16699 28.5157 7.81283 26.6927C6.45866 24.8698 5.51248 23.1945 4.97428 21.6667C4.43609 20.1389 4.16699 18.5764 4.16699 16.9792C4.16699 13.7153 5.26074 10.9896 7.44824 8.80212C9.63574 6.61462 12.3614 5.52087 15.6253 5.52087C17.4309 5.52087 19.1496 5.90282 20.7816 6.66671C22.4135 7.4306 23.8198 8.50699 25.0003 9.89587C26.1809 8.50699 27.5871 7.4306 29.2191 6.66671C30.851 5.90282 32.5698 5.52087 34.3753 5.52087C37.6392 5.52087 40.3649 6.61462 42.5524 8.80212C44.7399 10.9896 45.8337 13.7153 45.8337 16.9792C45.8337 18.5764 45.5646 20.1389 45.0264 21.6667C44.4882 23.1945 43.542 24.8698 42.1878 26.6927C40.8337 28.5157 39.0107 30.573 36.7191 32.8646C34.4274 35.1563 31.5281 37.882 28.0212 41.0417L25.0003 43.75Z" fill="#FF0000"/>
</g>
</svg>
