<svg width="58" height="58" viewBox="0 0 58 58" fill="none" xmlns="http://www.w3.org/2000/svg">
<mask id="mask0_10_326" style="mask-type:alpha" maskUnits="userSpaceOnUse" x="0" y="0" width="58" height="58">
<rect width="58" height="58" fill="#D9D9D9"/>
</mask>
<g mask="url(#mask0_10_326)">
<path d="M29 47.4965L27.1688 45.8423C23.2248 42.2391 19.9623 39.1548 17.3813 36.5895C14.8007 34.0238 12.7636 31.7612 11.2701 29.8017C9.77662 27.8422 8.73323 26.0692 8.13994 24.4826C7.54665 22.8965 7.25 21.3009 7.25 19.6958C7.25 16.6222 8.2942 14.0414 10.3826 11.9534C12.4706 9.865 15.0514 8.8208 18.125 8.8208C20.2505 8.8208 22.2442 9.36455 24.1063 10.4521C25.9683 11.5396 27.5995 13.1213 29 15.1972C30.4005 13.1213 32.0317 11.5396 33.8938 10.4521C35.7558 9.36455 37.7495 8.8208 39.875 8.8208C42.9486 8.8208 45.5294 9.865 47.6174 11.9534C49.7058 14.0414 50.75 16.6222 50.75 19.6958C50.75 21.3009 50.4534 22.8965 49.8601 24.4826C49.2668 26.0692 48.2234 27.8422 46.7299 29.8017C45.2364 31.7612 43.207 34.0238 40.6417 36.5895C38.0764 39.1548 34.8062 42.2391 30.8312 45.8423L29 47.4965ZM29 44.225C32.8667 40.7301 36.0486 37.7364 38.5458 35.244C41.0431 32.7512 43.0167 30.5885 44.4667 28.7559C45.9167 26.9232 46.9236 25.2998 47.4875 23.8857C48.0514 22.4711 48.3333 21.0745 48.3333 19.6958C48.3333 17.2791 47.5278 15.2652 45.9167 13.6541C44.3056 12.043 42.2917 11.2375 39.875 11.2375C37.9509 11.2375 36.1757 11.7867 34.5493 12.885C32.9225 13.9834 31.4662 15.637 30.1805 17.8458H27.8195C26.5028 15.606 25.0389 13.9445 23.4278 12.8615C21.8167 11.7788 20.0491 11.2375 18.125 11.2375C15.7393 11.2375 13.7331 12.043 12.1063 13.6541C10.4799 15.2652 9.66667 17.2791 9.66667 19.6958C9.66667 21.0745 9.94861 22.4711 10.5125 23.8857C11.0764 25.2998 12.0833 26.9232 13.5333 28.7559C14.9833 30.5885 16.9569 32.7434 19.4542 35.2205C21.9514 37.6976 25.1333 40.6991 29 44.225Z" fill="#FF0000"/>
</g>
</svg>
