<svg width="100" height="100" viewBox="0 0 100 100" fill="none" xmlns="http://www.w3.org/2000/svg">
<mask id="mask0_6_163" style="mask-type:alpha" maskUnits="userSpaceOnUse" x="0" y="0" width="100" height="100">
<rect width="100" height="100" fill="#D9D9D9"/>
</mask>
<g mask="url(#mask0_6_163)">
<path d="M22.9167 72.9167C16.5278 72.9167 11.1111 70.6945 6.66667 66.25C2.22222 61.8056 0 56.3889 0 50C0 43.6111 2.22222 38.1945 6.66667 33.75C11.1111 29.3056 16.5278 27.0834 22.9167 27.0834C25.4861 27.0834 27.9514 27.5348 30.3125 28.4375C32.6736 29.3403 34.7917 30.625 36.6667 32.2917L43.75 38.75L37.5 44.375L31.0417 38.5417C29.9306 37.5695 28.6806 36.8056 27.2917 36.25C25.9028 35.6945 24.4444 35.4167 22.9167 35.4167C18.8889 35.4167 15.4514 36.8403 12.6042 39.6875C9.75694 42.5348 8.33333 45.9723 8.33333 50C8.33333 54.0278 9.75694 57.4653 12.6042 60.3125C15.4514 63.1598 18.8889 64.5834 22.9167 64.5834C24.4444 64.5834 25.9028 64.3056 27.2917 63.75C28.6806 63.1945 29.9306 62.4306 31.0417 61.4584L63.3333 32.2917C65.2083 30.625 67.3264 29.3403 69.6875 28.4375C72.0486 27.5348 74.5139 27.0834 77.0833 27.0834C83.4722 27.0834 88.8889 29.3056 93.3333 33.75C97.7778 38.1945 100 43.6111 100 50C100 56.3889 97.7778 61.8056 93.3333 66.25C88.8889 70.6945 83.4722 72.9167 77.0833 72.9167C74.5139 72.9167 72.0486 72.4653 69.6875 71.5625C67.3264 70.6598 65.2083 69.375 63.3333 67.7084L56.25 61.25L62.5 55.625L68.9583 61.4584C70.0695 62.4306 71.3194 63.1945 72.7083 63.75C74.0972 64.3056 75.5555 64.5834 77.0833 64.5834C81.1111 64.5834 84.5486 63.1598 87.3958 60.3125C90.2431 57.4653 91.6667 54.0278 91.6667 50C91.6667 45.9723 90.2431 42.5348 87.3958 39.6875C84.5486 36.8403 81.1111 35.4167 77.0833 35.4167C75.5555 35.4167 74.0972 35.6945 72.7083 36.25C71.3194 36.8056 70.0695 37.5695 68.9583 38.5417L36.6667 67.7084C34.7917 69.375 32.6736 70.6598 30.3125 71.5625C27.9514 72.4653 25.4861 72.9167 22.9167 72.9167Z" fill="#F59E0B" fill-opacity="0.85"/>
</g>
</svg>
