<svg width="40" height="40" viewBox="0 0 40 40" fill="none" xmlns="http://www.w3.org/2000/svg">
<mask id="mask0_11_584" style="mask-type:alpha" maskUnits="userSpaceOnUse" x="0" y="0" width="40" height="40">
<rect width="40" height="40" fill="#D9D9D9"/>
</mask>
<g mask="url(#mask0_11_584)">
<path d="M18.3335 28.3335H21.6668V18.3335H18.3335V28.3335ZM20.0002 15.0002C20.4724 15.0002 20.8682 14.8404 21.1877 14.521C21.5071 14.2016 21.6668 13.8057 21.6668 13.3335C21.6668 12.8613 21.5071 12.4654 21.1877 12.146C20.8682 11.8266 20.4724 11.6668 20.0002 11.6668C19.5279 11.6668 19.1321 11.8266 18.8127 12.146C18.4932 12.4654 18.3335 12.8613 18.3335 13.3335C18.3335 13.8057 18.4932 14.2016 18.8127 14.521C19.1321 14.8404 19.5279 15.0002 20.0002 15.0002ZM20.0002 36.6668C17.6946 36.6668 15.5279 36.2293 13.5002 35.3543C11.4724 34.4793 9.7085 33.2918 8.2085 31.7918C6.7085 30.2918 5.521 28.528 4.646 26.5002C3.771 24.4724 3.3335 22.3057 3.3335 20.0002C3.3335 17.6946 3.771 15.5279 4.646 13.5002C5.521 11.4724 6.7085 9.7085 8.2085 8.2085C9.7085 6.7085 11.4724 5.521 13.5002 4.646C15.5279 3.771 17.6946 3.3335 20.0002 3.3335C22.3057 3.3335 24.4724 3.771 26.5002 4.646C28.528 5.521 30.2918 6.7085 31.7918 8.2085C33.2918 9.7085 34.4793 11.4724 35.3543 13.5002C36.2293 15.5279 36.6668 17.6946 36.6668 20.0002C36.6668 22.3057 36.2293 24.4724 35.3543 26.5002C34.4793 28.528 33.2918 30.2918 31.7918 31.7918C30.2918 33.2918 28.528 34.4793 26.5002 35.3543C24.4724 36.2293 22.3057 36.6668 20.0002 36.6668Z" fill="white"/>
</g>
</svg>
