<svg width="40" height="40" viewBox="0 0 40 40" fill="none" xmlns="http://www.w3.org/2000/svg">
<mask id="mask0_11_527" style="mask-type:alpha" maskUnits="userSpaceOnUse" x="0" y="0" width="40" height="40">
<rect width="40" height="40" fill="#D9D9D9"/>
</mask>
<g mask="url(#mask0_11_527)">
<path d="M6.6665 35V19.375L3.6665 21.6667L1.6665 19L19.9998 5L38.3332 19L36.3332 21.625L33.3332 19.375V35H6.6665ZM13.3332 25C12.8609 25 12.4651 24.8403 12.1457 24.5208C11.8262 24.2014 11.6665 23.8056 11.6665 23.3333C11.6665 22.8611 11.8262 22.4653 12.1457 22.1458C12.4651 21.8264 12.8609 21.6667 13.3332 21.6667C13.8054 21.6667 14.2012 21.8264 14.5207 22.1458C14.8401 22.4653 14.9998 22.8611 14.9998 23.3333C14.9998 23.8056 14.8401 24.2014 14.5207 24.5208C14.2012 24.8403 13.8054 25 13.3332 25ZM19.9998 25C19.5276 25 19.1318 24.8403 18.8123 24.5208C18.4929 24.2014 18.3332 23.8056 18.3332 23.3333C18.3332 22.8611 18.4929 22.4653 18.8123 22.1458C19.1318 21.8264 19.5276 21.6667 19.9998 21.6667C20.4721 21.6667 20.8679 21.8264 21.1873 22.1458C21.5068 22.4653 21.6665 22.8611 21.6665 23.3333C21.6665 23.8056 21.5068 24.2014 21.1873 24.5208C20.8679 24.8403 20.4721 25 19.9998 25ZM26.6665 25C26.1943 25 25.7985 24.8403 25.479 24.5208C25.1596 24.2014 24.9998 23.8056 24.9998 23.3333C24.9998 22.8611 25.1596 22.4653 25.479 22.1458C25.7985 21.8264 26.1943 21.6667 26.6665 21.6667C27.1387 21.6667 27.5346 21.8264 27.854 22.1458C28.1735 22.4653 28.3332 22.8611 28.3332 23.3333C28.3332 23.8056 28.1735 24.2014 27.854 24.5208C27.5346 24.8403 27.1387 25 26.6665 25Z" fill="white"/>
</g>
</svg>
