<svg width="40" height="40" viewBox="0 0 40 40" fill="none" xmlns="http://www.w3.org/2000/svg">
<mask id="mask0_11_533" style="mask-type:alpha" maskUnits="userSpaceOnUse" x="0" y="0" width="40" height="40">
<rect width="40" height="40" transform="matrix(0 1 1 0 0 0)" fill="#D9D9D9"/>
</mask>
<g mask="url(#mask0_11_533)">
<path d="M33.3332 6.66675H29.9998V11.2501L29.4165 10.5834C28.0554 9.2223 26.5762 8.22925 24.979 7.60425C23.3818 6.97925 21.7498 6.66675 20.0832 6.66675C16.9998 6.66675 14.2568 7.59036 11.854 9.43758C9.45123 11.2848 7.86095 13.6945 7.08317 16.6667H10.5832C11.3054 14.6667 12.5346 13.0556 14.2707 11.8334C16.0068 10.6112 17.9443 10.0001 20.0832 10.0001C21.3332 10.0001 22.5484 10.2362 23.729 10.7084C24.9096 11.1806 25.9998 11.9167 26.9998 12.9167L27.4165 13.3334H23.3332V16.6667H33.3332V6.66675ZM32.9165 23.3334H29.4165C28.6943 25.3334 27.4651 26.9445 25.729 28.1667C23.9929 29.389 22.0554 30.0001 19.9165 30.0001C18.6665 30.0001 17.4512 29.764 16.2707 29.2917C15.0901 28.8195 13.9998 28.0834 12.9998 27.0834L12.5832 26.6667H16.6665V23.3334H6.6665V33.3334H9.99984V28.7501L10.5832 29.4167C11.9443 30.7779 13.4234 31.7709 15.0207 32.3959C16.6179 33.0209 18.2498 33.3334 19.9165 33.3334C22.9998 33.3334 25.7429 32.4098 28.1457 30.5626C30.5484 28.7154 32.1387 26.3056 32.9165 23.3334Z" fill="white"/>
</g>
</svg>
