<svg width="100" height="100" viewBox="0 0 100 100" fill="none" xmlns="http://www.w3.org/2000/svg">
<mask id="mask0_6_180" style="mask-type:alpha" maskUnits="userSpaceOnUse" x="0" y="0" width="100" height="100">
<rect width="100" height="100" fill="#D9D9D9"/>
</mask>
<g mask="url(#mask0_6_180)">
<path d="M63.7502 69.5834L69.5835 63.75L54.1668 48.3334V29.1667H45.8335V51.6667L63.7502 69.5834ZM50.0002 91.6667C44.2363 91.6667 38.8196 90.573 33.7502 88.3855C28.6807 86.198 24.271 83.2292 20.521 79.4792C16.771 75.7292 13.8022 71.3195 11.6147 66.25C9.42725 61.1806 8.3335 55.7639 8.3335 50C8.3335 44.2362 9.42725 38.8195 11.6147 33.75C13.8022 28.6806 16.771 24.2709 20.521 20.5209C24.271 16.7709 28.6807 13.8021 33.7502 11.6146C38.8196 9.42712 44.2363 8.33337 50.0002 8.33337C55.7641 8.33337 61.1807 9.42712 66.2502 11.6146C71.3196 13.8021 75.7293 16.7709 79.4793 20.5209C83.2293 24.2709 86.1981 28.6806 88.3856 33.75C90.5731 38.8195 91.6668 44.2362 91.6668 50C91.6668 55.7639 90.5731 61.1806 88.3856 66.25C86.1981 71.3195 83.2293 75.7292 79.4793 79.4792C75.7293 83.2292 71.3196 86.198 66.2502 88.3855C61.1807 90.573 55.7641 91.6667 50.0002 91.6667Z" fill="#F97316" fill-opacity="0.9"/>
</g>
</svg>
