<svg width="50" height="50" viewBox="0 0 50 50" fill="none" xmlns="http://www.w3.org/2000/svg">
<mask id="mask0_10_344" style="mask-type:alpha" maskUnits="userSpaceOnUse" x="0" y="0" width="50" height="50">
<rect width="50" height="50" fill="#D9D9D9"/>
</mask>
<g mask="url(#mask0_10_344)">
<path d="M31.8748 34.7916L34.7915 31.875L27.0832 24.1666V14.5833H22.9165V25.8333L31.8748 34.7916ZM24.9998 45.8333C22.1179 45.8333 19.4096 45.2864 16.8748 44.1927C14.3401 43.0989 12.1353 41.6145 10.2603 39.7395C8.38525 37.8645 6.90088 35.6597 5.80713 33.125C4.71338 30.5902 4.1665 27.8819 4.1665 25C4.1665 22.118 4.71338 19.4097 5.80713 16.875C6.90088 14.3402 8.38525 12.1354 10.2603 10.2604C12.1353 8.38538 14.3401 6.901 16.8748 5.80725C19.4096 4.7135 22.1179 4.16663 24.9998 4.16663C27.8818 4.16663 30.5901 4.7135 33.1248 5.80725C35.6596 6.901 37.8644 8.38538 39.7394 10.2604C41.6144 12.1354 43.0988 14.3402 44.1925 16.875C45.2863 19.4097 45.8332 22.118 45.8332 25C45.8332 27.8819 45.2863 30.5902 44.1925 33.125C43.0988 35.6597 41.6144 37.8645 39.7394 39.7395C37.8644 41.6145 35.6596 43.0989 33.1248 44.1927C30.5901 45.2864 27.8818 45.8333 24.9998 45.8333Z" fill="#3B82F6"/>
</g>
</svg>
